Patient4_TMGait_0pt7_01_right_45_EMG.mot
version=1
nRows=30
nColumns=33
inDegrees=no
endheader
time	1LAddLong	2LGlutMax	3LGlutMed	4LIliopsoas	5LSemiMemb	6LBicFemLong	7LRecFem	8LVastMed	9LVastLat	10LGasMed	11LTibAnt	12lTibPost	13LPeroneusLong	14LSol	15LExtDigLong	16LFlexDigLong	17RAddLong	18RGlutMax	19RGlutMed	20RIliopsoas	21RSemiMemb	22RBicFemLong	23RRecFem	24RVastMed	25RVastLat	26RGasMed	27RTibAnt	28RTibPost	29RPeroneusLong	30RSol	31RExtDigLong	32RFlexDigLong
52.85	0.011749	0.24674	-0.080414	-0.011902	0.019836	0.038757	0.22659	-0.003204	0.024261	0.026245	0.029144	0.080566	-0.021667	0.56488	-0.24597	0.010071	0.16235	-0.06073	-0.04303	-0.11246	-0.065765	0.010986	0.054626	-0.10056	-0.04303	-0.001831	-0.001373	0.004578	-0.043793	-0.028076	0.000916	0.002594
52.851	0.00885	0.23239	-0.023499	0.002441	0.010376	0.016479	0.2211	-0.010986	0.029602	0.018005	0.17899	0.14832	0.05127	0.60684	-0.066376	0.0177	0.14481	-0.10193	0.008087	-0.024872	0.07019	0.006256	0.019989	-0.093079	-0.007477	-0.005035	0.073547	0.001678	-0.0914	-0.036621	0.00351	-0.001373
52.852	0.010681	0.2153	0.10834	0.011902	-0.000153	0.017395	0.23972	-0.002747	0.052948	-0.014954	0.20477	0.28854	-0.030365	0.11047	0.007477	0.01297	0.077362	-0.063171	-0.048676	0.033722	0.079498	-0.013885	0.063477	-0.058441	-0.010223	-0.010986	0.14877	0.00473	-0.1033	-0.032043	0.000916	0
52.853	-0.002136	0.16235	0.03891	0.011292	-0.00412	0.050354	0.25375	-0.007324	0.045319	-0.044861	0.23346	0.002594	-0.02243	-0.12665	-0.14816	0.011749	-0.032959	-0.10941	-0.062256	0.061493	-0.027924	-0.018616	0.077209	-0.037537	-0.014648	-0.005493	0.13641	0.006866	-0.065918	-0.041656	0.001221	0.000458
52.854	-0.011292	0.16068	0.026398	-0.003662	-0.027313	0.050049	0.26352	-0.007629	0.014801	-0.055695	-0.16541	-0.099487	0.020142	-0.14893	-0.17029	-0.004425	-0.10178	-0.10712	-0.1294	-0.021667	-0.082703	-0.012054	0.046234	-0.091095	-0.00061	-0.014801	0.11673	0.00824	0.16937	-0.082397	-0.003815	0.001984
52.855	-0.004272	0.18372	0.061035	0.008087	-0.014801	0.044556	0.27695	-0.004883	-0.012817	-0.024109	-0.22919	-0.13214	-0.059204	-0.010834	0.10361	-0.004272	-0.12299	-0.039978	-0.17334	-0.052948	-0.048828	-0.025024	0.057373	-0.12726	0.000763	-0.00885	0.11185	0.005341	0.083618	-0.064545	-0.00351	0.004425
52.856	-0.000916	0.14221	0.06546	0.002441	0.041504	-0.009308	0.2742	0.007629	-0.028992	0.010529	-0.15595	-0.066376	-0.25909	0.021362	0.67719	0.011292	-0.11276	0.003204	-0.1506	-0.096588	-0.000305	-0.032349	0.061188	-0.1088	-0.006561	-0.01358	0.095215	0.006256	-0.28366	-0.058289	-0.00061	-0.009308
52.857	0.002289	0.13748	0.033875	0.005951	-0.06012	-0.051575	0.26764	0.005798	-0.04776	0.007935	-0.07843	-0.02243	-0.027924	0.065918	-0.12802	0.00473	-0.08728	0.002594	-0.1384	-0.089569	-0.02121	-0.00946	0.066071	-0.071259	0.005188	-0.00412	0.084686	0.007477	-0.63934	-0.037689	0.000305	0.000305
52.858	0	0.1149	-0.022736	0.002136	-0.12054	-0.081482	0.25452	0.015564	-0.040741	-0.04837	-0.048523	-0.012512	0.39658	0.088043	-0.36575	0.003662	-0.090637	0.068512	-0.24368	-0.070343	-0.13412	0.052338	0.047607	-0.050201	0.002899	-0.003204	0.050659	0.003662	-0.39612	-0.042572	-0.000305	0.001221
52.859	0.011139	0.086365	-0.053711	0.012665	-0.17151	-0.088654	0.26016	0.016479	0.010529	-0.29617	0.030518	-0.017548	0.14984	0.075226	-0.35492	0.003967	-0.081177	0.088806	-0.46173	-0.050201	-0.050964	0.06958	0.058441	-0.002441	0.025635	-0.000763	0.036316	0.002441	0.063171	-0.093842	0.002136	0.002441
52.86	0.02655	0.076294	-0.027618	0.006104	-0.049744	-0.088806	0.29495	0.003967	0.021667	-0.32471	0.11627	-0.007477	-0.13458	0.18158	-0.13565	0.004425	-0.028076	0.098877	-0.60288	-0.022278	-0.02121	0.0737	0.055237	-0.001373	0.009613	-0.001068	0.018158	0.003357	0.25238	-0.074615	0.001678	0.009155
52.861	0.031586	0.076294	-0.023193	-0.005493	0.069733	0.026703	0.36453	-0.008392	-0.027618	-0.2507	0.05249	0.003357	-0.24414	0.233	-0.071716	0.007172	-0.009918	0.11169	-0.28275	0.027924	-0.00885	0.047607	0.089722	-0.007019	0.014191	-0.003662	0.024719	0.003815	0.14252	-0.038757	0.000916	0.009003
52.862	0.027161	0.064392	0.02594	0.007172	0.051422	0.092621	0.38177	-0.020905	-0.085754	0.091553	0.03418	-0.002289	-0.27634	0.13916	-0.080719	-0.003357	-0.016174	0.099792	0.25223	0.023499	-0.044403	0.034485	0.056458	-0.026703	0.017853	-0.006561	0.012512	0.002747	0.22766	-0.028992	0.007782	0.00412
52.863	0.027618	0.033569	0.061035	-0.00946	0.10132	0.079346	0.31036	-0.003052	-0.070496	0.38238	0.075684	-0.003662	-0.23499	0.023346	0.089111	-0.002136	0.001984	0.017853	1.2303	0.005951	-0.097961	0.070038	0.087585	-0.022125	0.013275	-0.013885	0.028992	0.001068	0.17319	-0.04364	-0.003052	0.010223
52.864	0.019226	0.056458	0.078125	0.00473	0.12711	0.017242	0.31296	-0.002594	-0.078735	0.88058	0.076599	-0.002594	-0.13947	-0.032501	0.03952	0.000153	0.009918	-0.021515	1.2547	0.05249	0.007172	0.081177	0.058746	-0.076141	0.016479	-0.012054	0.056	0.002899	0.11566	-0.068359	0.003052	0.009613
52.865	0.015259	0.031891	0.015564	-0.00351	0.06897	0.011749	0.31296	0.004883	-0.052795	0.73547	0.047455	0.007172	-0.045624	-0.040588	0.008087	0.028229	0.006866	-0.051117	0.028534	0.043335	0.10193	0.14282	0.080414	-0.048218	0.013275	-0.013428	0.042725	0.000916	0.000916	-0.059814	0.001526	0.001373
52.866	0.010986	0.021362	-0.004883	0.014954	0.036774	0.039063	0.30319	0.011749	-0.044861	0.1358	-0.0383	-0.007477	0.1503	-0.081787	0.058136	0.05249	-0.02121	0.028839	-0.75974	-0.002441	0.089111	0.1799	0.063782	-0.055542	0.01358	-0.024414	0.052948	0.001984	-0.11795	-0.046082	0	0.010071
52.867	0.017853	0.025787	-0.11108	0.004578	0.013733	0.017853	0.23468	0.012665	0.015411	-0.25406	-0.090637	0.006409	0.19241	-0.24323	0.064697	-0.046082	-0.028076	0.068665	-0.57434	0.024109	0.11078	0.13641	0.078125	-0.005035	0.045013	-0.02243	0.035248	0.005035	-0.22614	-0.072021	-0.001984	-0.005341
52.868	0.012512	0.055695	-0.12207	0.020294	-0.015259	0.035248	0.29297	0.000763	0.047455	-0.63889	-0.063934	0.01358	0.1265	-0.17746	0.08728	-0.11673	-0.04776	0.083923	-0.58838	0.057068	0.25803	0.13855	0.012512	0.014038	0.029907	-0.0177	0.03418	-0.002594	-0.159	-0.09201	0.00061	0.005341
52.869	0.013428	0.11505	0.000305	0.004425	-0.027161	0.070496	0.38177	-0.006256	-0.053101	-0.54535	-0.033417	0.018463	0.022583	-0.030823	0.14938	-0.12909	-0.051575	0.14908	0.4158	-0.041504	0.16739	0.10025	0.023499	0.013275	0.038452	-0.015869	0.069885	0.001831	-0.06012	-0.054779	-0.001831	-0.002136
52.87	0.011749	0.098724	0.11475	0.01358	0.021515	0.051575	0.44037	0.001831	-0.10925	-0.27252	-0.007477	0.032959	0.067444	-0.001678	0.054169	0.12238	-0.033112	0.091858	1.5152	-0.035858	-0.033722	0.049133	0.059662	0.029602	0.041656	-0.019073	0.12878	0.002441	-0.090179	-0.050507	-0.002747	-0.00946
52.871	0.008698	0.099792	0.041962	-0.001678	0.032196	-0.011902	0.44403	0.000305	-0.059814	-0.10468	0.062561	0.035553	-0.088196	0.022736	0.15778	0.095673	-0.009308	-0.019836	1.0609	-0.03006	-0.019531	0.01358	0.017853	-0.036926	0.035095	-0.010071	0.14786	0.001221	-0.050964	-0.053101	-0.001221	-0.010834
52.872	0.007324	0.081635	-0.053406	-0.011292	0.050659	-0.03006	0.46997	-0.001678	-0.066528	0.1532	0.01236	0.026093	-0.11215	0.029602	0.093536	-0.016937	0.016174	-0.12299	0.78659	0.018463	-0.029602	-0.021057	0.029907	-0.093842	0.02655	-0.012665	0.12054	0.006104	0.1889	-0.029907	-0.000305	-0.005798
52.873	0.012207	0.078278	-0.023804	0.009766	0.028076	-0.004272	0.46783	0.006561	-0.087891	0.51819	-0.009613	0.008698	0.034485	0.053711	0.14801	-0.021057	0.039673	-0.055389	0.00885	0.042267	-0.17807	-0.029297	0.061646	-0.11749	0.005798	-0.011444	0.10147	-0.002747	-0.15106	0.005188	-0.001984	-0.009766
52.874	0.008087	0.091858	-0.008087	-0.003357	0.003052	0.018768	0.40146	0.006714	-0.095367	0.4335	-0.046692	0.005188	0.071106	0.071411	0.078278	-0.016174	0.05127	-0.044098	-0.12329	0.004883	-0.26215	-0.021515	0.076904	-0.082855	-0.006409	-0.015106	-0.18005	-0.000458	-0.34225	0.023651	-0.004272	-0.006714
52.875	0.013885	0.10208	0.011444	0.02594	0.018463	0.006409	0.41702	0.002899	-0.054626	0.35919	0.009766	-0.001984	0.048981	0.010223	0.010376	-0.003357	0.019989	-0.056763	-0.39002	0.000153	-0.21133	-0.050201	0.045471	-0.11551	-0.007172	-0.014496	-0.22675	-0.005188	0.089874	-0.00412	0.001526	-0.011597
52.876	0.015717	0.10437	-0.02121	0.013885	0.013733	0.081482	0.39032	0.007782	-0.06073	0.13397	0.057983	0.006714	0.032196	-0.006561	0.11292	-0.00473	-0.009003	-0.09552	-0.48553	-0.011139	0.085907	0.071106	0.045013	-0.041656	0.016785	-0.019989	-0.13809	-0.000305	0.69153	-0.019531	0.004272	-0.013428
52.877	-0.002289	0.1413	-0.026093	-0.001831	0.011292	0.14343	0.41672	0.013123	-0.081787	-0.54153	0.13718	0.001678	-0.121	0.06424	-0.12726	-0.016022	-0.041809	-0.036469	-0.56381	-0.012665	0.34012	0.11368	0.048523	0.002441	0.018616	-0.025787	-0.065155	-0.005646	0.31433	0.031738	-0.003052	-0.008087
52.878	0.003967	0.14282	-0.00824	-0.00824	0.020905	0.15533	0.4042	0.004883	-0.065918	-0.35584	0.047302	0.011139	-0.06134	0.16663	-0.38742	-0.011597	-0.006256	-0.06134	-0.64179	0.020599	0.21484	0.16129	0.04776	-0.039978	0.02533	-0.029602	-0.12116	-0.003662	0.006256	-0.065765	-0.002136	-0.011902
52.879	0.00824	0.18158	0.11215	0.012817	0.033264	0.15305	0.38925	0.00412	-0.027771	-0.17014	0.075684	0.00824	0.020294	0.17731	-0.32272	-0.013428	0.057373	-0.11902	-0.53085	0.032959	0.063782	0.12863	0.066833	-0.097046	0.027771	-0.039215	-0.084076	0.005188	-0.025177	-0.088806	-0.003357	-0.010681
